# xmcd
# 
# Track frame offsets:
#     182
#     12275
#     21607
#     32250
#     44347
#     54180
#     64700
#     78607
#     90992
#     101392
#     115582
#     128307
#     141217
#     152907
#     162360
#     174425
#     189432
#     204740
#     215257
#     226212
#     239157
#     249022
#     263192
#     278322
#     290742
#     301650
#     316390
#     328607
#     338537
# 
# Disc length: 4689
# 
# Revision: 1
# Processed by: cddbd v1.5.2PL0 Copyright (c) Steve Scherf et al.
# Submitted via: fre:ac v1.0.17
# 
DISCID=7c124f1d
DTITLE=Jim Reeves - Welcome To My World, Part 7
DYEAR=0
DGENRE=Country
TTITLE0=Dark Moon
TTITLE1=You're Free To Go
TTITLE2=You're The Only Good Thing (That's Happened To Me)
TTITLE3=No One To Cry To
TTITLE4=Oh, How I Miss You Tonight
TTITLE5=I'm Gettin' Better
TTITLE6=Have I Stayed Away Too Long?
TTITLE7=Room Full Of Roses
TTITLE8=I Was Just Walkin' Out The Door
TTITLE9=We Could
TTITLE10=Take Me In Your Arms And Hold Me
TTITLE11=Almost
TTITLE12=I Missed Me
TTITLE13=I Know One
TTITLE14=Am I Losing You?
TTITLE15=The Fool's Paradise
TTITLE16=The Blizzard
TTITLE17=The Wreck Of The Number Nine
TTITLE18=The Letter Edged In Black
TTITLE19=The Tie That Binds
TTITLE20=Danny Boy
TTITLE21=The Streets Of Laredo
TTITLE22=Rodger Young
TTITLE23=The Mighty Everglades
TTITLE24=It's Nothin' To Me
TTITLE25=That Silver Haired Daddy Of Mine
TTITLE26=Wild Rose
TTITLE27=It Hurts So Much (To See You Go)
TTITLE28=Danny Boy
EXTD=
EXTT0=
EXTT1=
EXTT2=
EXTT3=
EXTT4=
EXTT5=
EXTT6=
EXTT7=
EXTT8=
EXTT9=
EXTT10=
EXTT11=
EXTT12=
EXTT13=
EXTT14=
EXTT15=
EXTT16=
EXTT17=
EXTT18=
EXTT19=
EXTT20=
EXTT21=
EXTT22=
EXTT23=
EXTT24=
EXTT25=
EXTT26=
EXTT27=
EXTT28=
PLAYORDER=
